<svg width="48" height="48" viewBox="0 0 48 48" fill="none" xmlns="http://www.w3.org/2000/svg">
<rect width="48" height="48" fill="#195159"/>
<g clip-path="url(#clip0)">
<path d="M16.3999 24.48H30.3999V25.88H16.3999V24.48ZM27.3423 20.28H16.3999V21.68H29.0657C28.4357 21.2838 27.8575 20.8148 27.3423 20.28V20.28ZM16.3999 17.48H25.4999C25.3123 17.032 25.1681 16.5616 25.0533 16.08H16.3999V17.48ZM34.5999 23.045V26.6402C34.5999 32.39 26.1999 30.08 26.1999 30.08C26.1999 30.08 28.3251 38.48 22.5067 38.48H12.1999V10.48H25.4999C25.9367 9.43139 26.5681 8.48639 27.3423 7.67999H9.3999V41.28H23.6645C28.0927 41.28 37.3999 31.1678 37.3999 27.8204V22.38C36.5277 22.744 35.5841 22.9694 34.5999 23.045ZM40.1999 13.98C40.1999 17.459 37.3789 20.28 33.8999 20.28C30.4209 20.28 27.5999 17.459 27.5999 13.98C27.5999 10.501 30.4209 7.67999 33.8999 7.67999C37.3789 7.67999 40.1999 10.501 40.1999 13.98ZM37.1815 12.7452L36.2071 11.7708L33.2447 14.8074L31.8559 13.49L30.8815 14.4658L33.2447 16.7576L37.1815 12.7452V12.7452Z" fill="white"/>
</g>
<defs>
<clipPath id="clip0">
<rect width="33.6" height="33.6" fill="white" transform="translate(8 7.67999)"/>
</clipPath>
</defs>
</svg>
